<svg fill="#036" height="85.333" viewBox="0 0 64 64" width="85.333" xmlns="http://www.w3.org/2000/svg"><path d="m25.1 0h13.5c4.35.34 8.68 1.08 12.85 2.37 3.13 1.14 7.05 2.37 8.4 5.76-.53 9.38-2.92 18.58-4.23 27.9-.4 4.53-5.27 6.38-8.94 7.77-9.45 2.93-19.9 2.92-29.35-.01-3.68-1.4-8.54-3.25-8.94-7.8l-3.89-22.89c-.3-2.46-1.23-5.67 1.27-7.33 5.5-4.15 12.7-4.95 19.33-5.77m-6.33 5.56c-1.7.65-4.87.72-4.6 3.2 4.7 2.87 10.48 2.8 15.8 3.08 6.76-.02 13.95.2 20.1-3.03-.65-2.73-3.87-2.83-6.08-3.47-8.32-1.34-16.95-1.44-25.23.23m10.54 16.87c-6.53 1.7-8.4 11.24-2.97 15.24 4.94 4.56 13.9.97 14.4-5.7 1.08-6.16-5.58-11.6-11.44-9.55zm.07 4.76c2.8-2.27 7.44.3 7.1 3.83.05 3.34-4.4 5.72-7.05 3.5-2.6-1.57-2.58-5.7-.05-7.33zm-17.3 25.83c-.38-2.74-1.52-5.53-.67-8.3 9.18 6.4 21.3 7.62 31.92 4.52 3.53-.93 6.47-3.23 9.96-4.25-.92 4.46-1.1 9.16-2.85 13.4-3.15 3.92-8.58 4.86-13.27 5.6h-10.2c-4.16-.52-8.47-1.47-11.9-4-2.27-1.56-2.46-4.5-2.98-6.96z"/></svg>