<svg fill="#7289da" height="320" viewBox="0 0 245 240" width="326.667" xmlns="http://www.w3.org/2000/svg"><path d="m35.77 40.95c-.12-10.73 9.3-20.38 20.06-20.4l134.2-.03c11.03-.43 21.1 9.24 20.95 20.3v180.18c-15.8-13.5-31.12-27.54-46.23-41.8l5.25 18.07c-38.35-.02-76.7.03-115.05-.02-10.45-.27-19.23-9.9-19.2-20.24l.01-136.04m44.34 37.1c-8.8 16.93-13.7 35.93-14.4 54.99-.7 3.92 2.75 6.54 5.26 8.92 6.8 6.06 15.9 8.8 24.87 9.33 2.22-2.65 4.38-5.36 6.54-8.06-6.9-2.33-13.57-6.2-17.7-12.34 11.57 7.26 25.1 11.47 38.78 11.7 14.25.3 28.3-4.23 40.38-11.6-4.33 6.22-11.1 10.25-18.27 12.37l6.5 7.94c11.62-.5 23.36-5.56 30.24-15.2-.4-20.08-5.2-40.24-14.54-58.04-5.98-5.03-13.5-8.15-21.07-9.85-2.65-.34-5.78-1.6-8.08.4 9.02 3.27 18.32 6.8 25.44 13.48-8.3-4.46-17.24-7.82-26.57-9.34-18.87-3.04-38.58.35-55.46 9.3 7.64-6.93 17.45-10.65 27.04-13.98-2.9-1.12-5.98-.15-8.9.4-7.24 1.76-14.36 4.8-20.08 9.62zm22.16 26.88c5.77-2.1 12.25 2.35 13.2 8.2 1.7 6.54-3.55 14.4-10.7 13.7-6.32-.2-10.78-6.92-9.7-12.9.52-4 3.25-7.8 7.18-9zm35.16.55c5.88-3.24 13.48 1.2 14.5 7.6 2.1 7.36-5 15.8-12.72 13.46-9.38-2.36-10.46-17.07-1.78-21.05z"/></svg>