<svg fill="#1081de" height="90.667" viewBox="0 0 72 68" width="96" xmlns="http://www.w3.org/2000/svg"><path d="m0 14.4c7.35-3.95 14.1-8.9 21.2-13.3l14.83 12.1c5-3.97 9.86-8.1 14.82-12.12 7.05 4.42 13.83 9.32 21.15 13.32v1.24l-.64.04c-5.2 2.68-8.96 7.5-14.1 10.3-7.3-3.8-14.1-8.55-21.24-12.68-7.13 4.14-13.9 8.95-21.3 12.6-5.17-2.7-8.86-7.62-14.1-10.22l-.6.08v-1.36zm0 23.02c5.5-2.87 9.5-8.3 15.12-10.7 7.15 3.83 13.86 8.42 20.87 12.5-4.85 4.17-9.84 8.16-14.77 12.24-6.92-4.16-13.32-9.22-20.56-12.78l-.66-.05v-1.2z"/><path d="m36.04 39.23 21.28-13.03c4.87 3.75 9.4 8 14.68 11.18v1.18c-7.6 3.28-14.06 8.73-21.18 12.9zm-14.84 14.8 14.85-12.15 14.87 12.16 6.34-4.15.05 4.58-21.23 12.6-21.3-12.63.05-4.5 6.36 4.1z"/></svg>