<svg height="170.667" viewBox="0 0 128 128" width="170.667" xmlns="http://www.w3.org/2000/svg"><path d="m8.95 38.97c.55-15.73 14.35-29.51 30.09-30.02l47.92-.07c8.46-.08 16.86 3.38 22.8 9.4 5.98 5.93 9.4 14.3 9.35 22.72l-.02 46.94c-.13 13.04-9.2 25.3-21.54 29.42-4.8 1.75-9.98 1.86-15.04 1.75v-41l13.88.01 3.48-17.36c-5.8 0-11.58.01-17.36-.02.27-4.9-1.12-10.8 2.6-14.73 3.96-3.73 9.84-2.35 14.76-2.6v-17.36c-5.76.12-11.55-.3-17.3.26-7.32.9-13.4 6.55-15.7 13.44-2.47 6.73-1.54 14-1.73 21l-13.88.01v17.35l13.9.01-.01 40.97h-24.17c-8.43.06-16.8-3.4-22.74-9.4-6-5.92-9.44-14.3-9.36-22.73l.07-48z" fill="#375f98"/></svg>