<svg height="85.333" viewBox="0 0 64 64" width="85.333" xmlns="http://www.w3.org/2000/svg"><path d="m29.17 0h5.42c8.92.87 17.53 5.34 22.93 12.56 3.68 4.74 5.78 10.58 6.48 16.54v5.05c-.82 10.5-7.1 20.4-16.4 25.43-2.26 1.05-4.65 2.83-7.26 2.23-1.33-5.24 1-11.2-2.24-16 4.13-.7 8.7-1.77 11.33-5.35 3.88-5.46 4.04-13.48-.1-18.86.52-2.9.36-5.86-.5-8.7-3.16.5-6.08 1.82-8.8 3.46-5.3-1.2-10.75-1.2-16.03 0-2.72-1.64-5.64-2.96-8.8-3.47-.9 2.83-1.04 5.8-.52 8.7-4.4 5.73-4.04 14.64.85 19.95 2.7 2.82 6.68 3.6 10.35 4.28-.87 2.23-1.8 5.46-4.83 5.1-5.9 1.05-6.83-8.33-12.9-6.47 2.58 2.02 4.46 4.66 5.92 7.56 1.95 3.57 6.52 3.45 10.02 3.14.01 2.33-.1 4.66-.24 6.98-13.07-2.3-22.78-14.9-23.85-27.83v-5.02c.82-8.65 5.1-16.98 12-22.35 4.9-3.93 10.97-6.18 17.17-6.93z" fill="#171516"/></svg>