<svg xmlns="http://www.w3.org/2000/svg" width="170.667" height="170.667" viewBox="0 0 128 128" xmlns:v="https://vecta.io/nano"><path fill="#fca326" d="M24 9h5v1.93l1 .08v2.93l1 .07v2.93l1 .07v2.94l1 .06v2.95l1 .04v2.95l1 .05v2.95l1 .06v2.94l1 .05v2.95l1 .05v2.96l1 .04v2.96l1 .04v3.94l1 .07v2.93l1 .07v3h44v-3l1-.06V45l1-.06V42l1-.07V39l1-.06V35l1-.04V32l1-.04V29l1-.03V26l1-.04V23l1-.05V20l1-.04V17l1-.06V14l1-.04V11l1-.07V9h4.73l1.28 1.27v2.7l1 .04v2.96l1 .04v3.94l1 .07v2.93l1 .07v2.94l1 .06v2.93l1 .07v2.94l1 .06v2.94l1 .06v2.95l1 .04v2.96l1 .04v2.96l1 .04v2.96l1 .04v2.96l1 .04v2.97l1 .03v3.96l1 .04v2.96l1 .04v2.95l1 .06v2.95l1 .04v2.96l1 .04v7.73l-3.9 3.6-.1.66-1.64.05-1.26 1.3-.12.47c-1.68.13-2.72 1.5-3.9 2.5l-.07.7-1.6.07-2.27 2.3-.12.63-1.64.04-1.26 1.3-.12.47c-1.68.13-2.72 1.5-3.9 2.5l-.07.7-1.6.08-2.26 2.3-.14.62-1.6.08-2.26 2.3-.14.63-1.63.04-1.24 1.3-.14.48c-1.68.13-2.7 1.5-3.9 2.5l-.07.7-1.67.03-2.55 2.96a67.46 67.46 0 0 0-1.42.07l-1.25 1.27-.13.48c-1.67.14-2.7 1.5-3.9 2.48l-.07.7-1.67.06-1.22 1.27-.13.5c-1.97.07-3.02 1.85-4.23 3.14l-1.4.1-1.26 1.27-.1.67h-4l.03-.84c-.93-.62-1.92-1.08-3-1.38l-.1-.5c-1.2-1-2.24-2.35-3.9-2.5l-.12-.47-1.26-1.3-1.63-.04-.14-.63-2.26-2.3-1.4-.1-2.55-2.95-1.66-.03-.1-.66-1.26-1.3-1.63-.04-.14-.63-2.26-2.3-1.6-.08-.14-.62-2.26-2.3a85.58 85.58 0 0 1-1.6-.07l-.1-.65-1.26-1.3a88.69 88.69 0 0 0-1.63-.05l-.14-.63-2.26-2.3L26 94l-.07-.7c-1.2-1-2.24-2.35-3.9-2.5l-.13-.47-1.25-1.3-1.63-.04-.14-.63-2.26-2.3L15 86l-.07-.7c-1.2-1-2.25-2.37-3.93-2.5v-.64a10.24 10.24 0 0 0-2.98-1.38l-.13-.46-3.9-3.6V69l1-.04V66l1-.02V63l1-.04V60l1-.04V57l1-.04V54l1-.04V51l1-.07V47l1-.04V44l1-.04V41l1-.03V38l1-.04V35l1-.05V32l1-.04V29l1-.06V26l1-.06V23l1-.06V20l1-.06V17l1-.07V14l1-.07V11l1-.08V9m-.12 4.03L11.5 51.96C24.36 69.2 37.96 85.9 51.03 103c4.17 4.92 7.63 10.45 12.24 15l1.36 1.07.23-.98c1.4-1.37 2.7-2.83 3.88-4.4L116.6 52c-2.97-10.56-6.7-20.9-10-31.38-1.3-3.54-1.98-7.34-3.73-10.7-2.17-1.84-3.43 1.52-3.9 3.16-4 13-8.67 25.8-12.33 38.9l-.62.04H42.04l-.6-.05C38.67 41.9 35.1 32.08 32 22.12c-1.45-3.96-2.27-8.17-4.15-11.96-2.06-2.4-3.47 1.18-3.97 2.87z"/><path d="M23.88 13.03c.5-1.7 1.9-5.28 3.97-2.87 1.88 3.8 2.7 8 4.15 11.96 3.1 9.96 6.67 19.8 9.45 29.84-9.96-.53-19.97-.35-29.95 0 3.73-13.1 8.37-25.92 12.38-38.93zm75.1.04c.47-1.64 1.73-5 3.9-3.16 1.75 3.36 2.42 7.16 3.73 10.7 3.3 10.47 7.02 20.82 10 31.38-9.97-.48-19.98-.47-29.95-.03 3.66-13.1 8.34-25.9 12.33-38.9zM42.04 52h43.98l-16.97 52.15c-1.54 4.6-3.17 9.2-4.2 13.94l-.23.98-1.36-1.07c-3.98-14.1-8.85-27.93-13.34-41.88-2.73-8-4.9-16.2-7.9-24.1z" fill="#e24329"/><path d="M11.5 51.96c9.98-.35 20-.53 29.95 0l.6.05c3 7.9 5.16 16.1 7.9 24.1C54.45 90.06 59.3 103.9 63.3 118c-4.6-4.54-8.07-10.07-12.24-15L11.5 51.96zm74.52.04l.62-.04c9.97-.44 19.98-.45 29.95.03l-47.85 61.7c-1.17 1.57-2.48 3.03-3.88 4.4 1.02-4.75 2.65-9.34 4.2-13.94L86.02 52z" fill="#fc6d26"/></svg>