<svg height="85.333" viewBox="0 0 64 64" width="85.333" xmlns="http://www.w3.org/2000/svg"><path d="m31.2 0h2.4c7.35.35 14.36 3.4 19.78 8.32l-8.94 8.73c-3.74-3.05-8.48-5.02-13.36-4.65-7.96.26-15.18 6.13-17.46 13.7-1.1 3.96-.95 8.17.07 12.12l-10.32 8c-2.11-4.16-3.25-8.79-3.37-13.42v-2.36c.56-16.22 14.97-30.24 31.2-30.44z" fill="#ef6627"/><path d="m32 26.17h30.08c2 10.58-.77 22.36-8.7 29.94l-1.18-.78c-2.87-2.44-5.9-4.68-8.9-6.96 3.2-2.62 5.57-6.2 6.43-10.3l-17.73-.03z" fill="#4285f4"/><path d="m3.37 46.2 10.32-8c1.55 4.08 4.16 7.83 7.86 10.22 6.4 4.34 15.32 4.1 21.75-.07 3 2.28 6.04 4.52 8.9 6.96l.83 1.1c-5.3 4.47-11.93 7.19-18.86 7.59h-2.97c-11.65-.26-22.66-7.38-27.82-17.8z" fill="#34a853"/></svg>