<svg height="170.667" viewBox="0 0 128 128" width="170.667" xmlns="http://www.w3.org/2000/svg"><path d="m18.6 0h90.62c9.68.47 17.96 8.64 18.78 18.26v90.92c-.47 9.82-8.86 18.24-18.65 18.82h-90.55c-9.8-.48-18.2-8.84-18.8-18.62v-90.58c.47-9.8 8.83-18.22 18.6-18.8m31 41.63c-5.68 3.56-9.8 9.3-11.7 15.68-2.66-5.3-7.73-9.46-13.7-10.2-7.15-1.15-14.64 2.76-18 9.1-3.35 5.95-2.74 13.79 1.48 19.17 4.13 5.56 11.7 8.3 18.43 6.47 5.2-1.25 9.4-5.12 11.8-9.8 1.75 5.6 5.06 10.75 9.78 14.3 7.7 6.1 18.87 7.35 27.74 3.12 7.17-3.25 12.57-9.77 14.87-17.27 2.55 4.92 7.15 8.9 12.7 9.87 6.95 1.47 14.5-1.9 18.24-7.9 3.6-5.5 3.72-13.02.26-18.6-3.67-6.27-11.43-9.85-18.57-8.3-5.52 1-10.1 4.95-12.63 9.84-2.32-7.5-7.73-14.06-14.93-17.28-8.14-3.82-18.2-3.14-25.73 1.8zm9.7 6.84c9.3-3.03 20.13 3.68 21.43 13.4 1.83 9.2-5.4 18.86-14.8 19.6-8.65 1.2-17.37-5.42-18.53-14.07-1.48-8.13 3.9-16.78 11.9-18.92zm-41.02 9.73c4.72-2.78 11.34 1.32 10.8 6.8.03 5.35-6.6 8.86-11.05 5.98-4.83-2.56-4.68-10.44.26-12.8zm84.07.24c4.34-2.92 10.98.3 11.18 5.58.8 5.53-5.77 9.9-10.6 7.22-5.02-2.23-5.36-10.12-.58-12.8z" fill="#0082c9"/><path d="m49.6 41.63c7.52-4.93 17.6-5.6 25.73-1.8 7.2 3.22 12.6 9.8 14.93 17.28 2.54-4.9 7.1-8.84 12.63-9.84 7.14-1.55 14.9 2.03 18.57 8.3 3.46 5.6 3.35 13.12-.26 18.6-3.74 6-11.3 9.38-18.24 7.9-5.55-.98-10.15-4.95-12.7-9.87-2.3 7.48-7.7 14-14.86 17.26-8.87 4.23-20.03 2.98-27.74-3.12-4.72-3.55-8.03-8.7-9.78-14.3-2.4 4.68-6.6 8.55-11.8 9.8-6.72 1.84-14.3-.9-18.43-6.47-4.22-5.36-4.83-13.22-1.48-19.17 3.37-6.35 10.86-10.26 18-9.1 5.97.73 11.04 4.9 13.7 10.2 1.92-6.4 6.03-12.12 11.7-15.68m9.72 6.84c-8 2.14-13.37 10.8-11.9 18.92 1.16 8.65 9.88 15.27 18.53 14.07 9.38-.73 16.62-10.38 14.8-19.6-1.3-9.72-12.12-16.43-21.43-13.4m-41.01 9.75c-4.94 2.35-5.1 10.23-.26 12.8 4.46 2.88 11.08-.63 11.05-5.98.55-5.5-6.07-9.6-10.8-6.8m84.07.23c-4.78 2.68-4.44 10.57.58 12.8 4.83 2.68 11.4-1.7 10.6-7.22-.2-5.3-6.84-8.5-11.18-5.58z" fill="#fff"/></svg>