<svg height="85.333" viewBox="0 0 64 64" width="85.333" xmlns="http://www.w3.org/2000/svg"><path d="m32.47 13.4c2.4-5.03 8.17-8.17 13.72-7.23 3.07.25 5.6 2.16 7.97 3.95 2.8-.77 5.5-1.82 8.2-2.9-1.3 2.77-3.3 5.1-5.53 7.18 2.4-.65 4.82-1.28 7.18-2.1v.3c-1.9 2.42-4.4 4.3-6.33 6.7-.03 11.05-4.47 22.15-12.78 29.57-9.13 8.32-22.54 10.92-34.36 7.9-3.66-.95-7-2.8-10.53-4.1v-.33c6.9.55 13.74-1.5 19.38-5.42-5.55-.5-10.15-4.13-12.45-9.12l6-.33c-5.96-1.64-10.24-6.9-10.66-13.07l5.77 1.76c-2.03-2.48-4.4-4.93-5.06-8.2-.97-3.26.14-6.55 1.23-9.6 6.8 8 16.6 13.07 27.07 13.92.03-2.98-.3-6.17 1.18-8.9z" fill="#5ea9dd"/></svg>