<svg height="298.667" viewBox="0 0 512 224" width="682.667" xmlns="http://www.w3.org/2000/svg"><path d="m246.26 35.67c3.8-.43 7.64-.7 11.48-.73 14.16 14.93 29.14 29.06 43.44 43.88 2.45 2.68 5.3 4.97 8.42 6.85l.36.22c.5 4.45 1.38 8.86 1.44 13.35-7.84-6.68-14.8-14.3-22.15-21.5l-27-27c-5.23-5.13-10.05-10.73-16-15.1zm-120.12 1.36 8.58-.1c11.18 11.69 22.68 23.07 34.28 34.35l-.02 10.87c-14.92-14.1-29.03-29.06-43.8-43.34l.95-1.78zm22.66-.08 10.9.01a167.01 167.01 0 0 0 9.29 9.34l-.01 10.85c-6.97-6.48-13.75-13.18-20.17-20.2zm229.43 4.9c1.5-2.48 2.9-5.7 6.4-5 12.89 13.38 26.07 26.45 39.37 39.43l-.02 10.88c-15.57-14.77-30.34-30.37-45.75-45.3zm20.57-4.9h10.9c4.56 4.97 9.34 9.73 14.28 14.33l-.02 10.88c-8.64-8.15-17.1-16.5-25.17-25.2zm-170.52 5.43 8.23-4.06c7 8.28 15 15.68 22.72 23.3-3.4-.3-6.86.01-10.04 1.27-6.82-7-13.45-14.2-20.9-20.5zm47.72-3.78c12.6 4.4 22.37 15.16 27.37 27.33-3.32-2.77-6.66-5.53-9.66-8.65-5.96-6.18-12.42-11.9-17.7-18.68zm-160.62 15.84 4.36-6.92c5.66 5.3 11.14 10.78 16.63 16.25a167.98 167.98 0 0 0 -3.8 7.44c-5.57-5.75-11.05-11.6-17.18-16.77zm99.82-.14 5.4-5.9c7.5 6.8 14.26 14.34 21.73 21.16-1.46 2.47-2.68 5.07-3.66 7.76-7.72-7.78-15.15-15.87-23.46-23.02zm153.26 3.2 4.36-6.93c5.75 5.37 11.35 10.9 16.68 16.7-1.2 2.3-2.3 4.63-3.42 6.95-6.07-5.37-11.4-11.53-17.62-16.72zm-262.52 12.07 4.5-7.22c5.4 6.45 11.58 12.2 17.65 18l-3.65 7.2c-6.44-5.7-12.25-12.06-18.5-17.97zm100.2.76 3.68-7.78c8.92 8.33 17.18 17.3 26.1 25.64-.52 3.05-.9 6.13-1.18 9.2-10.35-8.14-18.37-18.8-28.6-27.07zm-69.14-5.89 32 31.84-.02 10.88c-11.1-10.53-21.84-21.45-32.53-32.4.17-3.43.47-6.87.54-10.3zm222.03 8.2 4.48-7.24c5.5 6.47 11.47 12.6 18.1 17.94-1.34 2.63-2.7 5.25-4.13 7.82-6-6.32-12.2-12.44-18.45-18.52zm32.73-2.84c11.27 9.95 21.24 21.25 32.24 31.48l-.02 10.88c-10.98-10.08-20.96-21.2-31.9-31.32l-.95 1.26c.12-4.1.36-8.2.62-12.3zm-119.2 6.28c5.14 3.93 9.72 8.5 14.2 13.17l25.24 25.03c-.13 3.82-.37 7.63-.63 11.44-7.2-9.1-16.18-16.55-24.1-24.98-3.54-3.7-7.03-7.56-11.5-10.2-.68-4.9-1.8-9.73-3.2-14.47zm-176.1 8.65 4.2-6.7c6.1 6.26 12.2 12.52 18.6 18.45l-4.63 7.5c-5.37-7.06-12.28-12.68-18.18-19.25zm104.33 4.94 2-9.13c10.8 9.92 20.48 20.98 31.46 30.7.01 3.6.06 7.2.22 10.8-12.1-9.84-22-22.06-33.68-32.37zm148.45-1.4 4.52-7.2c6.04 6.33 12.2 12.54 18.58 18.52l-4.18 6.74c-6.53-5.8-12.23-12.44-18.92-18.05zm-213.2.6c7.7 7 14.8 14.58 22.22 21.87 3.53 3.58 7.3 6.94 10.56 10.78l.5 2.15 2.16.52c5.42 4.73 10.12 10.22 15.48 15.03 0 3.68.04 7.37-.12 11.06l-50.84-50.48.02-10.92zm-49.34 11.49 4.2-6.72c6.4 6 12.62 12.2 18.6 18.6l-4.2 6.76c-6.03-6.4-12.28-12.57-18.6-18.65zm304.3-6.5c17.36 16.4 33.68 33.85 50.94 50.35l-.01 6.02h-5.6c-6.35-7.16-13.4-13.66-20.08-20.5-8.44-8.3-16.57-16.9-25.25-24.95v-10.91zm-51.23 9.53 4.5-7.23c5.63 6.83 12.4 12.57 18.28 19.17-1.44 2.3-2.9 4.6-4.25 6.97-5.64-6.8-12.3-12.66-18.53-18.9zm-140.34-.9c8.02 6.98 15.22 14.82 22.84 22.22 4.5 4.4 8.46 9.54 14.02 12.72 1.6 7.4 3.94 15.27 9.8 20.45 3.45 3.13 8.3 3.98 12.82 3.5l21.17 21.07a108.28 108.28 0 0 1 -8.5 3.4c-5.04-6.4-11.2-11.78-16.86-17.6l-14.4-14.56-41.37-40.95c.03-3.42.06-6.84.45-10.24zm77.47 2.3c11.4 10.13 21.26 21.88 32.86 31.8-.65 3-1.37 6-2.2 8.97-10.7-9.4-20-20.24-30.62-29.74.07-3.68.05-7.35-.05-11.02zm-199.82 10.91 4.3-6.9c13.5 13.93 27.7 27.15 40.86 41.4l-10.92.02c-11.03-11.87-22.76-23.1-34.25-34.53zm253.08 3.08 4.32-6.9c12.43 12.93 25.65 25.1 37.77 38.34l-10.92.02c-10.02-10.84-20.7-21.05-31.17-31.46zm-194.16-4.9c6.5 5.85 12.52 12.22 18.74 18.37 5.86 5.95 12 11.65 17.5 17.97l-3.22.02-.04 6.9c-5.96-5.4-11.52-11.23-17.23-16.9-5.3-5.35-10.83-10.5-15.8-16.2l.05-10.15zm255 5c6.5 5.86 12.5 12.24 18.74 18.38 4.6 4.5 8.8 9.47 14.1 13.22.22 3.9.16 7.8.13 11.7-8.18-7.53-15.8-15.62-23.73-23.4-4.86-4.84-9.8-9.63-14.38-14.74h5.14v-5.13zm-280.1 5.15 10.92-.02c6.55 7.16 13.63 13.83 20.44 20.75l26.74 26.52-.03 10.87c-8.67-8.02-16.8-16.6-25.2-24.9-10.85-11.18-22.3-21.77-32.87-33.23zm249.98-.02h10.92c7.7 8.35 16 16.14 23.95 24.25l28.25 28.02c.02 3.48.07 6.97-.25 10.45l-1.05-.96c-11.02-9.86-20.88-20.98-31.7-31.08l-.04-4.45h-4.63c-8.1-9.12-17.34-17.13-25.46-26.23zm74.92.02 6.15-.03-.03 6.2-6.12-6.18zm-366.06 9.66c-.13-3.2-.2-6.58 1.82-9.3 8.8 8.35 17.53 16.83 25.7 25.83l-10.92.02c-5.2-5.84-10.72-11.4-16.6-16.56zm130.24-5.84c13.25 12.46 25.8 25.65 38.77 38.4 7.42 7.17 14.3 14.9 22.17 21.6-4.16.1-8.38.44-12.5-.25-9.6-11.03-20.48-20.87-30.67-31.34-4.9-4.8-9.34-10.18-15.1-14.03-1.2-4.73-2.06-9.55-2.66-14.4zm76.22.26c8.6 9.9 18.3 18.75 27.57 28a208.71 208.71 0 0 1 -4.03 7.7c-7.84-8.9-16.45-17.1-25.06-25.26.7-3.45 1.17-6.95 1.52-10.45zm48.53-.5c7.78 7.26 15.4 14.7 22.52 22.63l-10.93.01a111.55 111.55 0 0 0 -11.55-11.56zm-57.08 28.26c1.56-2.2 2.88-4.55 3.97-7 7.26 7.76 14.88 15.18 22.48 22.6a166.99 166.99 0 0 1 -5.73 5.56c-6.77-7.18-14.06-13.87-20.72-21.16zm-131.63 7.98c7.62 7.12 15.02 14.5 22.14 22.14l-10.88.01a199.84 199.84 0 0 0 -11.28-11.28l.02-10.88zm255 5a274.05 274.05 0 0 1 17.13 17.13l-10.84.01-6.3-6.3z" fill="#797979"/><path d="m257.74 34.94c6.18.4 12.58 1 18.27 3.66 5.3 6.8 11.75 12.5 17.7 18.68 3 3.12 6.34 5.88 9.66 8.65 3.22 6.12 5.03 12.95 6.22 19.74-3.12-1.88-5.97-4.17-8.42-6.85l-43.44-43.88zm-21.24 3.38c3.2-1.05 6.46-1.9 9.75-2.65 5.94 4.36 10.76 9.96 16 15.1l27 27c7.35 7.2 14.3 14.8 22.15 21.5.82 4.96.53 10.03.6 15.04-8.6-8.15-16.8-16.7-25.24-25.03-4.47-4.67-9.05-9.24-14.2-13.17-2.5-6.26-6.57-12.38-13.33-14.46-7.7-7.62-15.7-15.02-22.72-23.3zm-101.78-1.38 14.1.01c6.42 7.02 13.2 13.72 20.17 20.2v14.13c-11.6-11.28-23.1-22.66-34.3-34.34zm24.98.02 9.3-.03v9.37a167.01 167.01 0 0 1 -9.29-9.34zm224.93-.1c4.73.15 9.45.05 14.18.1 8.08 8.7 16.53 17.06 25.17 25.2l.02 14.12zm25.1.1h14.27v14.33c-4.94-4.6-9.72-9.36-14.28-14.33zm-284.53 1.84 43.8 43.34.02 14.13c-10.85-10.43-21.4-21.17-32-31.84l-.62-.67-16.63-16.25 5.45-8.7zm253.03 3.05 45.75 45.3.02 14.12c-11-10.23-20.97-21.53-32.24-31.47.13-2.23.2-4.46.18-6.7-.87 1.36-1.7 2.74-2.44 4.16-5.33-5.8-10.93-11.33-16.68-16.7l5.4-8.73zm-157.63 6.55c2.44-2.15 5.02-4.14 7.7-6 7.46 6.3 14.1 13.52 20.9 20.5-2.68 1.77-5.03 4.02-6.87 6.66-7.47-6.82-14.24-14.36-21.73-21.16zm-105.22 6.04c6.13 5.16 11.6 11.02 17.18 16.77l-4.48 9.14c-6.07-5.8-12.25-11.55-17.65-18l4.95-7.9zm94.44 8.1 5.38-8.26c8.3 7.15 15.74 15.24 23.46 23.02-1.22 3.54-2.1 7.2-2.74 10.88-8.92-8.33-17.18-17.3-26.1-25.64zm158.64-5.05c6.23 5.2 11.55 11.35 17.62 16.72l-4.47 9.1c-6.63-5.35-12.6-11.47-18.1-17.94l4.95-7.9zm-267.8 20.53 5.28-8.46c6.24 5.9 12.05 12.27 18.5 17.97-1.57 3.07-3.34 6.02-5.17 8.94-6.4-5.93-12.5-12.2-18.6-18.45zm105.48-7.7c10.23 8.27 18.25 18.93 28.6 27.07-.35 4.6-.46 9.22-.5 13.83-10.98-9.7-20.67-20.77-31.46-30.7a125.39 125.39 0 0 1 3.36-10.2zm147.6 10.73 5.28-8.42c6.24 6.08 12.45 12.2 18.45 18.52-1.65 2.85-3.43 5.62-5.15 8.42-6.4-5.98-12.54-12.2-18.58-18.52zm-217.73 7.82a303.39 303.39 0 0 1 .43-14.13l32.53 32.4c-.01 4.8.2 9.6-.18 14.37-3.25-3.84-7.03-7.2-10.56-10.78-7.4-7.3-14.53-14.88-22.22-21.87zm256.08-8.04c10.93 10.12 20.9 21.24 31.9 31.32v11.85l11.8.02a297.19 297.19 0 0 0 6.12 6.18l.02 14.02c-17.26-16.5-33.58-33.96-50.94-50.35 0-3.92-.05-7.85.13-11.77l.95-1.26zm-301.21 12.81 5.57-8.9c5.9 6.57 12.8 12.2 18.18 19.25l-5.15 8.27c-5.98-6.42-12.2-12.6-18.6-18.6zm253.4 2.54 4.96-7.9c6.7 5.6 12.4 12.26 18.92 18.05l-5.6 9.03c-5.88-6.6-12.65-12.34-18.28-19.17zm-143.5-6.5c11.7 10.3 21.6 22.53 33.68 32.37.32 5.17.86 10.32 1.83 15.4-5.56-3.18-9.5-8.3-14.02-12.72-7.62-7.4-14.82-15.24-22.84-22.22-.06-4.3.77-8.58 1.35-12.84zm75 .88c4.46 2.63 7.95 6.5 11.5 10.2 7.92 8.43 16.9 15.9 24.1 24.98-.48 3.63-.98 7.26-1.6 10.87-11.6-9.9-21.46-21.66-32.86-31.8-.18-4.76-.53-9.52-1.12-14.25zm-139.78 9.24c17.24 16.52 33.8 33.74 50.83 50.5l-14.6-.07c-5.48-6.32-11.63-12.02-17.5-17.97-6.22-6.15-12.23-12.52-18.74-18.37v-14.09zm-54.6 9.02 5.3-8.46c6.33 6.08 12.58 12.26 18.6 18.65l-3 4.96 8.6.05c10.56 11.46 22.02 22.05 32.87 33.23 8.4 8.3 16.54 16.88 25.2 24.9l.05 3.84c-3.62.01-7.24.02-10.86-.01-7.12-7.64-14.52-15.02-22.14-22.14l-.03-13.6c-4.58.01-9.16.03-13.74-.02-13.15-14.25-27.37-27.47-40.86-41.4zm253.08 3.06 5.3-8.47c6.22 6.25 12.9 12.1 18.53 18.9l-.9 1.67h3.5c8.12 9.1 17.37 17.1 25.46 26.23-4.7.01-9.4.03-14.1-.02-12.12-13.23-25.34-25.4-37.77-38.34zm56.52-7.08c8.68 8.04 16.8 16.66 25.25 24.95 6.7 6.83 13.73 13.33 20.08 20.5-4.16.05-8.33-.15-12.48.23-5.3-3.75-9.5-8.73-14.1-13.22-6.23-6.14-12.23-12.52-18.74-18.38v-14.08zm-192.02 7.95c14.07 13.36 27.4 27.48 41.37 40.95 4.93 4.7 9.6 9.7 14.4 14.56 5.67 5.8 11.82 11.18 16.86 17.6-3.52.87-7.1 1.5-10.68 2-7.87-6.7-14.75-14.43-22.17-21.6l-38.76-38.4c-.6-5-.88-10.05-1-15.1zm-121.9 2.95c11.5 11.44 23.22 22.66 34.25 34.53-4.7.01-9.4.03-14.08-.02-8.16-9-16.88-17.48-25.7-25.83 1.9-2.85 3.7-5.78 5.52-8.68zm199.86.12c10.6 9.5 19.92 20.34 30.62 29.74-1.06 3.58-2.36 7.1-3.78 10.55-9.27-9.26-18.97-18.12-27.57-28 .4-4.1.63-8.18.73-12.28zm53.22 2.96c10.46 10.4 21.15 20.62 31.17 31.46-4.7.01-9.4.03-14.08-.02-7.1-7.92-14.74-15.37-22.52-22.63 1.74-2.98 3.6-5.9 5.43-8.8zm-208.36 5.22 14.15.03c4.96 5.7 10.48 10.86 15.8 16.2 5.7 5.68 11.27 11.5 17.23 16.9l.02 14.13c-9.1-8.64-17.8-17.7-26.75-26.53-6.8-6.92-13.9-13.6-20.44-20.75zm49.67.2c5.13-.38 10.28-.18 15.43-.15l.05 15.18c-5.36-4.8-10.06-10.3-15.48-15.03zm200.33-.2h14.07c4.6 5.1 9.52 9.9 14.38 14.74 7.92 7.8 15.55 15.88 23.73 23.4l.02 14.12c-9.62-9.14-18.8-18.7-28.25-28.03-7.96-8.1-16.24-15.9-23.95-24.25zm-302.06 9.68c5.87 5.16 11.4 10.72 16.6 16.56-5.5.02-11.02.02-16.54-.03l-.05-16.53zm204.96 4.87c8.6 8.15 17.22 16.36 25.06 25.26-1.8 2.62-3.65 5.2-5.65 7.65l-22.48-22.6c1.35-3.32 2.32-6.8 3.07-10.3zm50.07.12a111.55 111.55 0 0 1 11.55 11.56l-11.56.01zm-122.13 3.56c5.76 3.85 10.2 9.23 15.1 14.03 10.2 10.47 21.07 20.3 30.67 31.34-11.22-.92-21.93-6.2-29.6-14.4-8.27-8.5-13.25-19.6-16.16-30.96zm188.36 12.47c10.8 10.1 20.67 21.22 31.7 31.08-4.84.4-9.7.2-14.55.2a274.05 274.05 0 0 0 -17.13-17.13zm-132.08 6.7c3.35-1 6.4-2.9 8.73-5.53 6.66 7.3 13.95 13.98 20.72 21.16-2.65 1.98-5.4 3.8-8.28 5.44-7.18-6.9-14.12-14.04-21.17-21.07zm-122.92 13.32a203.22 203.22 0 0 1 11.28 11.27h-11.28v-11.29zm255 4.98 6.3 6.3h-6.3v-6.32z" fill="#a2a2a2"/></svg>