<svg height="298.667" viewBox="0 0 512 224" width="682.667" xmlns="http://www.w3.org/2000/svg"><path d="m245.25 35.68c3.8-.44 7.64-.7 11.5-.74 14 14.76 28.8 28.74 42.94 43.38a40.85 40.85 0 0 0 8.94 7.36l.35.22c.47 4.45 1.37 8.86 1.44 13.35-7.48-6.4-14.16-13.6-21.16-20.5l-27.5-27.5c-5.4-5.3-10.37-11.08-16.5-15.58zm126.4.15a99.28 99.28 0 0 1 10.04-.89c11.93 12.52 24.4 24.5 36.55 36.8 6 5.68 11.26 12.23 18.05 17.05.63 4.1 1.23 8.25 1.24 12.43-8.53-7.03-15.88-15.3-23.8-22.98l-42.1-42.42zm-273.82 1.2 10.88-.02c7.28 7.8 15.13 15.06 22.43 22.84 2.28 2.2 4.55 4.93 7.86 5.45 3.74.53 7.53.1 11.28-.1-8.75-9.77-18.63-18.46-27.46-28.16l10.88-.04c7.3 7.8 15.13 15.06 22.45 22.85 2.07 2 4.07 4.44 7 5.16 3.25.7 6.6.6 9.9.73-17.7.1-35.4-.01-53.08.06-1.64-.04-3.27.2-4.87.53 3.3-.92 6.7-1.13 10.1-1.44-8.93-9.5-18.56-18.28-27.37-27.87zm50 0 10.9-.02c4.6 4.92 9.36 9.7 14.28 14.28l-.04 10.82c-8.67-8.06-17-16.48-25.13-25.08zm79.45 5.36 8.22-4.06c7.03 8.27 15 15.7 22.73 23.3-3.4-.3-6.86 0-10.04 1.27-6.82-7-13.45-14.2-20.9-20.5zm171.68-4.85c15.52 4.2 27.12 17.7 32.18 32.57-4-3.75-8.1-7.38-11.9-11.34-6.8-7.05-14.2-13.52-20.27-21.23zm-123.96 1.06c12.6 4.4 22.37 15.18 27.38 27.35-3.12-2.65-6.3-5.23-9.17-8.16-6.14-6.33-12.74-12.24-18.2-19.2zm78.57 4.25 7.13-3.78c7.03 7.53 14.84 14.32 21.48 22.2-2.74.32-5.43 1-7.93 2.14-7.16-6.58-13.95-13.54-20.68-20.57zm-263.83.93c8.62 7.14 15.52 16.12 24.38 23l.57.53c-.22 3.6-.95 7.13-1.4 10.7-8.1-8.32-16.07-16.8-24.8-24.45l1.26-9.77zm124.46 10.5 5.4-5.9c7.46 6.82 14.27 14.33 21.72 21.17-1.47 2.46-2.68 5.06-3.66 7.75-7.7-7.8-15.16-15.85-23.45-23.03zm126.15 1.14 5.24-6.05c7.65 6.77 14.12 14.8 22.2 21.1-1.54 2.72-2.73 5.63-3.7 8.6-7.5-8.26-15.36-16.24-23.73-23.64zm-135.2 14.9 3.7-7.77c8.9 8.33 17.17 17.3 26.1 25.64a129.02 129.02 0 0 0 -1.18 9.22c-10.33-8.17-18.4-18.8-28.6-27.1zm126.58 1.12 3.7-8.18c2.9 3.5 6.03 6.85 9.32 10.02 5.64 5.4 10.75 11.37 17 16.1-.52 3.3-.88 6.63-1.14 9.96-10.3-8.57-19-18.86-28.87-27.9zm-244.8-5.64c2.66 2.44 5.28 4.9 7.84 7.45l73.96 74.03c2.22 2.18 4.55 4.25 6.92 6.28-1.25 2.6-2.56 5.17-4 7.67-9.62-9.55-18.9-19.47-29-28.5-1.4-2.95-2.4-6.2-4.78-8.56-2.83-3.3-6.96-4.9-10.68-6.92-7.1-8.04-14.93-15.35-22.44-22.98-6.34-6.2-12.33-12.78-19.08-18.56l1.26-9.9zm184.62 10.27c4.92 3.84 9.42 8.15 13.7 12.68l25.75 25.53c-.14 3.82-.38 7.64-.65 11.45-6.25-8.05-14.1-14.63-21.1-21.97-4.66-4.58-8.83-9.78-14.47-13.22-.7-4.9-1.8-9.73-3.22-14.47zm127.53 1.73c13.14 12.6 25.7 25.82 38.86 38.43a230.48 230.48 0 0 1 -.71 10.17c-12.13-11.13-23.06-23.5-35.3-34.5-.6-4.76-1.54-9.48-2.85-14.1zm-199.28 11.85 2-9.1c10.78 9.93 20.48 20.98 31.46 30.7.01 3.6.06 7.2.2 10.8-12.08-9.86-22-22.05-33.66-32.4zm128.52-7.17c11.3 9.55 20.75 21.07 31.93 30.76.03 3.56.1 7.12.3 10.68-6.12-4.28-11.02-9.96-16.3-15.18-5.84-5.72-11.43-11.72-17.52-17.2l-.55 2.7c.38-3.97 1.2-7.88 2.13-11.76zm-245.44 15.28 1.3-10.6c8.16 9.46 17.7 17.62 26.05 26.9-5.17-.32-10.35-.2-15.53-.28l3.6-.56c-4.8-5.5-10-10.6-15.42-15.46zm40.95-9.73c4.22.14 8.44.56 12.62 1.18 7.42 8.98 16.25 16.65 24.3 25.04 5.98 5.5 10.85 12.3 17.94 16.48l.38.25c-.08 3.85-.03 7.7-.6 11.53-3.92-3.74-8-7.33-11.74-11.24zm74.92 14.6c10.5 9.7 20.34 20.1 30.44 30.2 1.87 1.75 3.95 3.26 6.1 4.65 1.6 7.38 3.94 15.26 9.8 20.43 3.46 3.1 8.3 3.97 12.82 3.5l21.2 21.06c-2.78 1.25-5.6 2.38-8.47 3.4-5.85-7.27-12.95-13.37-19.36-20.1-8.78-9.23-18.12-17.9-27.02-27l-26.28-26c.03-2.5-.02-5 .32-7.48l.46-2.64zm77.15 2.18c11.4 10.15 21.26 21.9 32.86 31.8-.65 3-1.37 6-2.2 8.98-10.68-9.4-20-20.24-30.62-29.74.07-3.68.05-7.36-.05-11.04zm49.32.37c6.26 3.37 10.38 9.36 15.52 14.1 7.34 6.93 13.88 14.74 21.83 21l-.25-2.42c1.78 7.44 4.12 15.5 10.32 20.5 3.48 2.9 8.2 3.45 12.56 3.04l-1.42.62c6.56 7.4 14.08 13.88 20.68 21.24a108.91 108.91 0 0 1 -8.05 2.93c-16.13-16.72-32.8-32.9-49.16-49.42l-22.23-21.97c-.03-3.2-.06-6.42.2-9.6zm77.73 1.66c11.2 10.14 21.2 21.5 32.4 31.63-.7 2.97-1.46 5.93-2.3 8.87-10.33-9.55-19.68-20.12-30.18-29.5.1-3.67.1-7.34.06-11zm-321.68 3.7 4.26 3.82-4.85.86.6-4.68zm117.73 17.29c13.08 12.3 25.46 25.33 38.26 37.92 7.58 7.34 14.63 15.25 22.68 22.1-4.16.2-8.32.2-12.47-.1-6.25-7.78-13.82-14.32-20.7-21.5-8.37-7.97-15.9-16.86-24.97-24.06-1.63-4.6-2.03-9.55-2.8-14.36zm76.2.25c8.6 9.9 18.3 18.78 27.58 28.02-1.3 2.6-2.65 5.17-4.04 7.72-7.84-8.9-16.45-17.12-25.06-25.27.7-3.46 1.17-6.96 1.52-10.47zm51.34 2.72c8.1 6.74 15.16 14.6 22.7 21.94l35 35.25c-4.16.08-8.33-.08-12.45-.63-4.2-6.1-9.94-10.83-15.06-16.1l-17.43-17.56c-2.97-3.18-6.2-6.12-9.86-8.5-1.28-4.74-2.47-9.52-2.9-14.4zm75.4-.04c9.35 8.6 17.98 17.97 27.2 26.72-1.23 2.37-2.5 4.7-3.85 7.02-8.64-7.68-16-16.73-25.04-23.95.75-3.23 1.28-6.5 1.7-9.8zm-264.58 21.64c1.84-2.22 3.4-4.66 4.66-7.25 7.62 8.16 15.4 16.23 23.8 23.6a161.48 161.48 0 0 1 -6.18 5.53c-7.35-7.37-14.4-15.04-22.28-21.87zm129.28 3.47c1.56-2.2 2.9-4.55 3.97-7 7.28 7.75 14.9 15.18 22.5 22.6-1.87 1.9-3.78 3.75-5.73 5.57-6.78-7.2-14.04-13.9-20.73-21.16zm126.06 1.1c1.57-1.97 2.96-4.1 4.12-6.32 7.7 7.03 14.76 14.7 22.3 21.88a156.85 156.85 0 0 1 -5.87 5.37l-20.56-20.93zm-271.83 3.14 8.67-2.57c6.95 7.7 14.2 15.2 22.1 21.96a166.69 166.69 0 0 1 -8.2 3.67c-7.3-7.9-15.28-15.14-22.56-23.06zm-42.5-2.56c6.07 4.93 11.33 10.73 16.88 16.2l13.9 14.1c-4.46-.3-8.9-.73-13.33-1.4-5.5-7.62-12.63-13.87-19.6-20.1l2.17-8.8zm16.45 1.16c4.25.6 8.5 1.34 12.77 1.8 7.68 9.13 16.92 16.78 24.75 25.8-4.48.8-9 1.5-13.56 1.52l3.56-.6c-8.8-9.87-18.9-18.47-27.52-28.5z" fill="#797979"/><path d="m256.74 34.94c6.18.4 12.58 1 18.27 3.65 5.47 6.95 12.07 12.86 18.2 19.2 2.86 2.93 6.05 5.5 9.17 8.16 3.23 6.12 5 12.95 6.23 19.74a40.85 40.85 0 0 1 -8.94-7.36l-42.94-43.38zm124.96 0c5.8.2 11.8.45 17.26 2.6 6.08 7.7 13.48 14.18 20.27 21.23 3.8 3.96 7.9 7.6 11.9 11.34 2.77 5.86 3.93 12.36 5.16 18.7-6.8-4.82-12.04-11.37-18.05-17.05l-36.55-36.8zm-146.2 3.38c3.2-1.05 6.46-1.9 9.75-2.64 6.12 4.5 11.1 10.28 16.5 15.58l27.5 27.5c7 6.9 13.68 14.1 21.16 20.5.8 4.96.52 10.03.6 15.03-8.76-8.33-17.17-17.02-25.74-25.53-4.3-4.53-8.8-8.84-13.7-12.68-2.48-6.25-6.56-12.37-13.32-14.45-7.73-7.6-15.7-15.03-22.73-23.3zm125.2.75c3.56-1.38 7.22-2.47 10.96-3.24 13.7 14.45 28.1 28.24 42.1 42.42 7.9 7.68 15.26 15.95 23.8 22.98.75 4.95.4 10 .4 15l-38.88-38.43c-1.84-4.73-3.88-9.7-7.93-12.97-2.5-2.17-5.78-3.05-8.97-3.55-6.64-7.9-14.45-14.68-21.48-22.2zm-270.17-2.07h7.3c8.8 9.6 18.44 18.38 27.37 27.87-3.4.3-6.8.52-10.1 1.44l-1 .44c-8.86-6.87-15.76-15.85-24.38-23l.8-6.77zm18.2 0 14.1.02c8.83 9.7 18.7 18.4 27.46 28.16-3.75.22-7.54.64-11.28.1-3.3-.52-5.58-3.24-7.86-5.45-7.3-7.77-15.15-15.03-22.43-22.83zm24.98 0 14.12.02c8.13 8.6 16.46 17.02 25.13 25.08l.1 3.64c-3.3-.13-6.66-.04-9.9-.73-2.92-.72-4.92-3.17-7-5.16-7.32-7.79-15.16-15.05-22.46-22.85zm25.02 0h14.27v14.28c-4.92-4.6-9.68-9.36-14.28-14.28zm60.88 11.4c2.44-2.15 5.02-4.14 7.68-6 7.46 6.32 14.1 13.52 20.9 20.5-2.7 1.77-5.04 4.02-6.87 6.67-7.45-6.84-14.26-14.35-21.72-21.17zm126 .97c2.5-2.36 5.18-4.52 7.98-6.52 6.73 7.03 13.52 14 20.68 20.57-2.57 1.93-4.75 4.33-6.47 7.04-8.07-6.3-14.54-14.32-22.2-21.1zm-257.13 4.18c8.73 7.66 16.7 16.13 24.8 24.45l-1.46 10.34c4-.3 8-.4 12-.3 14 14.7 28.67 28.75 42.9 43.24 3.75 3.9 7.82 7.5 11.74 11.24-.33 3.8-1.63 7.44-2.82 11.04-2.37-2.03-4.7-4.1-6.92-6.28l-73.95-74.04c-2.56-2.55-5.18-5-7.84-7.45zm120.35 9 5.38-8.27c8.3 7.18 15.74 15.24 23.45 23.03-1.22 3.54-2.1 7.2-2.74 10.88-8.92-8.33-17.2-17.3-26.1-25.64zm131.52-7.13c8.37 7.4 16.23 15.38 23.73 23.64-1.05 3.37-1.78 6.83-2.35 10.3-6.25-4.72-11.36-10.7-17-16.1-3.3-3.17-6.4-6.5-9.32-10.02a156.15 156.15 0 0 1 4.94-7.84zm-135.2 14.9c10.2 8.3 18.27 18.92 28.6 27.1-.35 4.6-.46 9.2-.5 13.82-10.98-9.7-20.68-20.76-31.46-30.7a127.13 127.13 0 0 1 3.36-10.22zm123.18 12.16c.9-3.74 2.08-7.42 3.4-11.04 9.88 9.03 18.57 19.32 28.87 27.9-.28 4.63-.35 9.27-.34 13.9-11.18-9.7-20.63-21.2-31.93-30.76zm-242.66-6.78c6.75 5.78 12.74 12.36 19.08 18.56 7.5 7.63 15.35 14.94 22.44 22.98-5.55-1.53-11.2-2.67-16.95-3.17-8.36-9.3-17.9-17.45-26.05-26.9l1.48-11.46zm50.78 13.5c12.2 2.07 24.2 7.42 32.44 16.84 5.9 6.85 9.27 15.68 9.8 24.68-7.1-4.2-11.96-11-17.94-16.48-8.05-8.4-16.88-16.06-24.3-25.04zm63.35.45c11.66 10.34 21.58 22.53 33.66 32.4.33 5.17.88 10.34 1.84 15.43-2.15-1.4-4.23-2.9-6.1-4.65-10.1-10.1-19.93-20.5-30.44-30.2l-.46 2.64c0-5.24.7-10.44 1.5-15.6zm74.97.9c5.64 3.44 9.8 8.64 14.47 13.22 7 7.34 14.86 13.92 21.1 21.97-.47 3.63-.97 7.25-1.6 10.86-11.6-9.9-21.47-21.65-32.86-31.8-.17-4.76-.53-9.52-1.12-14.25zm51.97 1c6.1 5.47 11.68 11.47 17.52 17.2 5.28 5.22 10.18 10.9 16.3 15.18.33 4.67 1 9.3 1.76 13.93l.25 2.42c-7.95-6.27-14.5-14.08-21.83-21-5.14-4.73-9.26-10.72-15.52-14.1.12-3.66.3-7.33.97-10.93zm75.2.35c12.24 11 23.17 23.37 35.3 34.5-.45 4.05-1.08 8.07-1.87 12.06-11.2-10.12-21.22-21.5-32.4-31.63-.13-5-.44-9.97-1.02-14.93zm-319.06 5.86c5.43 4.85 10.63 9.97 15.42 15.46l-3.6.56c-3.05.3-6.1.6-9.18.57-1.46-1.23-2.86-2.53-4.26-3.82l1.6-12.77zm115.1 14.98c9 8.43 17.5 17.36 26.28 26l27.02 27c6.4 6.74 13.5 12.84 19.36 20.1-3.53.86-7.1 1.5-10.7 2-8.05-6.85-15.1-14.76-22.68-22.1l-38.26-37.91c-.6-5-.88-10.04-1.02-15.1zm127.05 2.04c7.6 7.12 14.82 14.65 22.23 21.97l49.16 49.42c-4 .92-8.06 1.54-12.16 1.82-11.45-11.97-23.36-23.47-35-35.25-7.55-7.34-14.6-15.2-22.7-21.94-1.18-5.25-1.2-10.68-1.52-16.02zm-49.08 1.05c10.6 9.5 19.94 20.33 30.62 29.74-1.06 3.58-2.36 7.08-3.77 10.53-9.28-9.24-19-18.12-27.58-28.02.4-4.07.63-8.16.73-12.25zm126.96 2c10.5 9.37 19.85 19.94 30.18 29.5-1.16 3.44-2.47 6.83-3.94 10.15-9.2-8.75-17.84-18.1-27.2-26.72.5-4.3.8-8.6.95-12.92zm-260.26 14.87c10.1 9.04 19.4 18.96 29 28.5-1.82 2.6-3.78 5.1-5.84 7.5-8.4-7.36-16.18-15.43-23.8-23.6 1.07-4.06 1.06-8.28.63-12.43zm131.05 5.85c8.6 8.15 17.22 16.36 25.06 25.27-1.8 2.6-3.65 5.18-5.65 7.64l-22.5-22.6c1.35-3.33 2.33-6.8 3.08-10.3zm126.54 2c9.05 7.22 16.4 16.27 25.04 23.95a82.22 82.22 0 0 1 -6.14 8.02c-7.55-7.18-14.6-14.85-22.3-21.88 1.5-3.23 2.57-6.64 3.4-10.1zm-198.46 1.65c9.07 7.2 16.6 16.1 24.97 24.06 6.9 7.17 14.46 13.7 20.7 21.5-12.67-1.26-24.57-7.74-32.48-17.7-6.57-8.03-10.92-17.77-13.2-27.85zm127.66 3c3.65 2.37 6.9 5.3 9.86 8.5 5.7 5.96 11.67 11.67 17.44 17.56 5.12 5.27 10.87 10 15.06 16.1-13.4-1.97-25.5-10-32.88-21.3-4.3-6.35-7.3-13.5-9.48-20.84zm-199.9 12.33a45.1 45.1 0 0 0 7.82-5.14c7.87 6.83 14.93 14.5 22.28 21.87-2.58 1.86-5.27 3.58-8 5.23-7.9-6.75-15.15-14.25-22.1-21.96zm-50.34-4.06c5.05 2.2 10.4 3.54 15.62 5.23 8.6 10.04 18.73 18.64 27.52 28.5l-3.56.6c-3.2.3-6.43.12-9.64.04-4.53-4.8-9.22-9.44-13.9-14.1-5.55-5.48-10.8-11.28-16.88-16.2l.83-4.07zm178.7 7.93c3.35-1 6.4-2.9 8.73-5.52 6.7 7.27 13.95 13.97 20.73 21.16a81.13 81.13 0 0 1 -8.27 5.42c-7.2-6.88-14.12-14.04-21.2-21.06zm127.3-.02c2.7-1.07 5.33-2.45 7.5-4.42 6.65 7.17 13.8 13.85 20.56 20.93-2.8 2-5.74 3.8-8.8 5.35-6.6-7.36-14.12-13.84-20.68-21.24zm-277.6-.88c4.43.25 8.88.2 13.28-.4 7.28 7.92 15.25 15.17 22.56 23.06a98.75 98.75 0 0 1 -11.1 3.12c-7.83-9-17.07-16.66-24.75-25.8zm-31.4 5.84c6.98 6.22 14.12 12.47 19.6 20.1-7.8-1.33-15.56-3.38-22.65-6.98.95-4.4 2-8.74 3.04-13.1z" fill="#a2a2a2"/></svg>