<svg height="240" viewBox="0 0 180 180" width="240" xmlns="http://www.w3.org/2000/svg"><path d="m0 0h180v180h-180zm12.08 57.14c-4.26 6.59-5.26 14.76-4.48 22.43.82 9.85 5.03 19.76 12.93 26 9.4 7.74 21.88 10.2 33.76 10.7 2.4 6.56 6.5 12.32 10.77 17.77 3.87 4.74 8.28 9.33 13.9 11.96 2.82 1.4 6.03 1.06 9.07 1.1h42.93c7.53-.02 13.52-5.57 17.93-11.13 8.6-11.2 13.78-24.6 18-37.96 3.5-11.67 6.1-23.7 6.78-35.87.08-4.93.2-10.2-2.1-14.7-.96-2.07-3.3-2.97-5.48-2.67l-55.78 2.2.03 31.43-4.34-2.2v-29.2c-22.68-.15-45.3-1.85-67.94-3-10.12-.38-20.53 4.5-26 13.17zm10.4 9.24c2.86-6.46 10.53-8.7 17.06-8.4 1.2 14.92 4.97 29.5 10.2 43.5-9.18-1.27-19.34-4.18-24.55-12.53-3.86-6.63-5.8-15.27-2.7-22.55zm72.88 9.02c3.75-1.1 7.07 1.57 10.36 2.94l-3.72 7.36c-4 .33-5.88 4.7-3.88 8.04a445.04 445.04 0 0 1 -6.07 12.42c-3.82.47-6.44 5.27-3.3 8.2 2.97 3.27 9.1-.06 7.67-4.37l-1-2.34c1.86-4.13 3.93-8.17 5.9-12.25l3.82-1.28c2.93 1.55 6.47 2.5 8.57 5.2.27 5.1-3.26 9.5-5.07 14.1-2.64.56-5.5 2.52-4.9 5.6.33 3.7 5.52 5.37 7.93 2.52 1.87-1.8 1.2-4.48.24-6.54 2-5.25 5.96-10.23 5.36-16.1-1.47-6.37-11.05-5.1-11.9-11.75l3.52-7.32 20.3 9.96c3.66 1.74 4.94 6.6 2.95 10.06l-13.88 28.4c-1.84 3.58-6.7 4.64-10.07 2.64l-27.63-13.4c-3.58-1.5-5.4-6.06-3.67-9.57l13.38-27.67c.98-2.2 2.65-4.26 5.1-4.84z" fill="#fff"/><path d="m12.08 57.14c5.46-8.66 15.87-13.55 26-13.17 22.64 1.15 45.26 2.85 67.94 3v29.2l4.34 2.2-.03-31.43c18.6-.18 37.18-1.46 55.78-2.2 2.17-.3 4.52.6 5.48 2.67 2.3 4.5 2.17 9.78 2.1 14.7-.67 12.18-3.28 24.2-6.78 35.87-4.22 13.36-9.4 26.75-18 37.96-4.4 5.56-10.4 11.1-17.93 11.13-14.3.02-28.62-.02-42.93.01-3.04-.03-6.25.3-9.07-1.1-5.6-2.63-10.02-7.22-13.9-11.96-4.28-5.45-8.38-11.2-10.77-17.77-11.88-.5-24.37-2.96-33.76-10.7-7.9-6.23-12.1-16.14-12.93-26-.8-7.68.2-15.84 4.47-22.43m10.4 9.24c-3.1 7.28-1.16 15.92 2.7 22.55 5.2 8.35 15.37 11.26 24.55 12.53-5.22-14-9-28.57-10.2-43.5-6.53-.3-14.2 1.95-17.06 8.4m72.88 9.03c-2.44.58-4.1 2.64-5.1 4.84l-13.36 27.71c-1.74 3.5.1 8.06 3.67 9.57l27.58 13.43c3.38 2 8.23.94 10.07-2.64 4.77-9.4 9.25-18.94 13.88-28.4 2-3.45.7-8.32-2.95-10.06-6.7-3.47-13.57-6.57-20.3-9.96l-3.52 7.32c.84 6.66 10.42 5.38 11.9 11.75.6 5.86-3.37 10.84-5.36 16.1.96 2.06 1.63 4.75-.24 6.54-2.4 2.85-7.6 1.2-7.93-2.52-.6-3.08 2.27-5.04 4.9-5.6 1.8-4.6 5.34-9 5.07-14.1-2.1-2.7-5.64-3.65-8.57-5.2l-3.82 1.28-5.9 12.25 1 2.34c1.42 4.3-4.7 7.64-7.67 4.37-3.13-2.94-.5-7.74 3.3-8.2a445.04 445.04 0 0 0 6.07-12.42c-2-3.33-.13-7.7 3.88-8.04 1.3-2.43 2.5-4.9 3.73-7.36-3.3-1.37-6.6-4.04-10.36-2.94z" fill="#609926"/></svg>