<svg height="106.667" viewBox="0 0 80 80" width="106.667" xmlns="http://www.w3.org/2000/svg"><path d="m24.72 7.75c6.35-6.9 19.73-8.5 25.4.04 2.92.58 6.02 1.64 7.67 4.32 3.26 4.82 2.2 10.98.84 16.26 2.93 3.68.3 8.16-2.5 10.98-1.37 3.78-2.92 7.57-6.12 10.2l-.01 4.43c6.48.78 12.76 3.88 16.78 9.1 3.44 4.18 5.04 9.55 5.33 14.9h-64.21c-.02-12.17 10-23.03 22.1-24l-.02-4.4c-3.08-2.7-5.02-6.34-6-10.3-3.1-2.57-5.3-7.08-2.85-10.83-1.9-6.95-1.64-15.2 3.58-20.7m-1.3 5.63c-2.45 5.37-1.14 11.4.2 16.86.67-2.3.95-5.04 3.1-6.52 4.04-2.95 9.5-1.27 13.92-3.2 3-1.02 5.2-3.36 7.2-5.7 5.32 3.1 8.38 8.9 8.58 15 .9-5.3 2.94-11.27-.06-16.28-1.48-2.73-4.68-3.44-7.5-3.76-1.4-2.1-3-4.32-5.56-5.05-7.48-2.35-16.84 1.13-19.88 8.65m17.2 9.27c-3.62 1.3-7.58.73-11.24 1.8-2.26.78-3.42 3.16-3.34 5.44-.07 4.72-.67 9.88 1.86 14.12 2.48 4.4 7.47 6.58 12.1 7.9 4.85-1.4 10.07-3.75 12.4-8.53 2.4-4.8 1.46-10.36 1.52-15.52.1-4.2-2.53-7.68-5.5-10.34-2.33 2.08-4.77 4.2-7.8 5.12m15.43 13.53c1.64-.6 2.6-3.24 1.88-4.85-1.52.68-2 3.25-1.88 4.85m-34.01-3.97c-.47 1.32.25 3.7 1.74 3.9.38-1.32-.2-3.77-1.74-3.9m10 18.65-.08 5.15c3.68 5.33 12.42 5.33 16.1 0l-.07-5.15c-2.63 1.08-5.1 2.7-7.94 3.16-2.87-.4-5.37-2.07-8.02-3.15m-22.06 25.1h60.08c-1.09-10.16-9.44-18.76-19.64-19.93-2.26 3.53-6.02 6.22-10.37 5.94-4.36.28-8.18-2.36-10.4-5.94-10.2 1.14-18.58 9.76-19.66 19.93z" fill="#4888c6"/><path d="m23.42 13.38c3.04-7.52 12.4-11 19.88-8.65 2.57.73 4.15 2.95 5.56 5.05 2.83.32 6.03 1.03 7.5 3.76 3 5 .97 10.98.06 16.28-.2-6.1-3.26-11.9-8.58-15-2 2.34-4.22 4.68-7.2 5.7-4.43 1.93-9.88.25-13.92 3.2-2.14 1.48-2.42 4.22-3.1 6.52-1.35-5.47-2.66-11.5-.2-16.86zm32.64 22.8c-.1-1.6.36-4.17 1.88-4.85.72 1.6-.24 4.26-1.88 4.85zm-34.03-3.98c1.54.14 2.12 2.6 1.74 3.9-1.5-.2-2.2-2.6-1.74-3.9zm-12.07 43.76c1.08-10.17 9.46-18.8 19.66-19.93 2.23 3.58 6.05 6.22 10.4 5.94 4.35.28 8.1-2.4 10.37-5.94 10.2 1.17 18.55 9.77 19.64 19.93z" fill="#b6dcfe"/><path d="m40.63 22.65c3.04-.92 5.48-3.04 7.8-5.12 2.97 2.66 5.6 6.15 5.5 10.34-.06 5.16.87 10.73-1.52 15.52-2.34 4.78-7.56 7.14-12.4 8.53-4.63-1.33-9.62-3.5-12.1-7.9-2.53-4.24-1.93-9.4-1.86-14.12-.08-2.28 1.08-4.66 3.34-5.44 3.66-1.07 7.62-.5 11.24-1.8zm-8.6 28.2c2.65 1.08 5.15 2.74 8.02 3.15 2.84-.45 5.3-2.08 7.94-3.16l.07 5.15c-3.68 5.33-12.42 5.33-16.1 0z" fill="#fff"/></svg>