<svg xmlns="http://www.w3.org/2000/svg" height="1038.667" viewBox="0 0 879 779" width="1172" xmlns:v="https://vecta.io/nano"><linearGradient id="A" gradientUnits="userSpaceOnUse" x1="564.435" x2="432.937" y1="243.662" y2="194.366"><stop offset="0" stop-color="#6fe08d"/><stop offset="1" stop-color="#387047"/></linearGradient><path d="M420.617 163.617h51.5L583.71 275.27v34.355L472.117 421.277h-51.5l-.07-17.105 111.66-111.727-111.848-111.9zm0 0" fill="url(#A)"/><path d="M309.023 421.277h60.086l103.008-257.66H412.03zm0 0" fill="#6fe08d"/><path d="M157.535 480.97a3.31 3.31 0 0 0-3.023 3.121v102.898c.086 1.648 1.38 2.98 3.023 3.117h57.422c30.223 0 45.332-27.437 45.332-54.566 0-27.44-15.11-54.566-45.332-54.566zm12.086 15.28l45.332.313c19.34 0 28.71 19.02 28.71 38.664 0 19.332-9.672 39.29-28.71 39.29H169.62zM289 480.97c-1.645.14-2.934 1.473-3.023 3.12v102.898c.1 1.648 1.38 2.98 3.023 3.117h9.066c1.645-.137 2.938-1.47 3.023-3.117V484.1a3.31 3.31 0 0 0-3.023-3.121zm80.1 0c-30.223 0-45.332 27.13-45.332 54.57 0 27.13 15.105 54.566 45.332 54.566h58.027c.3-.312.602-.312.906-.625a3.19 3.19 0 0 0 1.512-2.488v-48.336c-.1-1.648-1.38-2.98-3.023-3.117h-9.066c-1.645.137-2.937 1.47-3.023 3.117v35.86H369.1c-19.04 0-28.414-19.645-28.414-39.29 0-19.332 9.367-38.668 28.414-38.668h57.422a3.3 3.3 0 0 0 3.02-3.117V484.1c-.086-1.648-1.375-2.98-3.02-3.12zm126.934 0c-30.223 0-45.336 27.13-45.336 54.57 0 27.13 15.11 54.566 45.336 54.566h58.027c.3-.312.602-.312.906-.625a3.19 3.19 0 0 0 1.512-2.488v-48.336c-.1-1.648-1.38-2.98-3.023-3.117h-9.066c-1.645.137-2.937 1.47-3.023 3.117v35.86h-45.332c-19.043 0-28.414-19.645-28.414-39.29 0-19.332 9.367-38.668 28.414-38.668h57.422a3.3 3.3 0 0 0 3.02-3.117V484.1c-.086-1.648-1.375-2.98-3.02-3.12zm91.57 0c-1.645.137-2.937 1.47-3.023 3.12v102.898a3.3 3.3 0 0 0 3.02 3.117h9.066a3.3 3.3 0 0 0 3.023-3.117V484.1c-.086-1.648-1.375-2.98-3.02-3.12zm39.29 0c-1.645.14-2.934 1.473-3.02 3.12v9.355a3.3 3.3 0 0 0 3.02 3.117h42.313v90.426a3.3 3.3 0 0 0 3.023 3.117h9.066a3.3 3.3 0 0 0 3.02-3.117v-90.426h42.313c.828.04 1.637-.28 2.215-.88a2.91 2.91 0 0 0 .809-2.242V484.1c-.1-1.648-1.38-2.98-3.023-3.12zm0 0" fill="#fff"/></svg>