<svg height="85.333" viewBox="0 0 64 64" width="85.333" xmlns="http://www.w3.org/2000/svg"><path d="m58.54.98 3.7.13-14.06 13.14c-1.42 1.5-3.64 1.47-5.23 2.68-1.23 1.54-.22 3.27.42 4.8l-12.47 12.43c-6.15-.5-12.35-.5-18.47-1.42 1.7-1.76 3.52-3.42 5.6-4.72l29.2-18.77c3.83-2.34 7.7-4.7 10.9-7.9l.4-.38z" fill="#00d5b7"/><path d="m1.08 18.05 57.05-16.7c-3.2 3.2-7.07 5.55-10.9 7.9l-29.2 18.77c-2.08 1.3-3.9 2.96-5.6 4.72-3.28-4.8-7.64-8.76-11.37-13.2l.02-1.5z" fill="#00eed7"/><path d="m61.07 4.1a16.59 16.59 0 0 1 1.86-2.32c.02 1.82.01 3.66-.54 5.4l-16.09 56.04c-3.82-.7-5.73-4.6-8.6-6.84-2.2-2.63-6.47-4.3-6.23-8.28l-.66-8.08 1.14.01c0 3.37.02 6.75.4 10.1 8.67-12.66 16.6-25.8 25.18-38.53 1.6-2.3 2.63-4.9 3.54-7.52z" fill="#0089ff"/><path d="m50.27 15.4c3.6-3.75 7.07-7.66 10.8-11.3-.9 2.62-1.95 5.22-3.54 7.52l-25.18 38.52c-.38-3.36-.4-6.74-.4-10.1l-1.14-.01c0-1.94-.58-4 .1-5.86 4.08-4.22 8.26-8.33 12.46-12.42 1.25-.06 2.52.1 3.75-.2 1.4-1.86 1.3-4.52 3.16-6.13z" fill="#005bec"/></svg>