<svg height="779pt" viewBox="0 0 879 779" width="1172" xmlns="http://www.w3.org/2000/svg" xmlns:xlink="http://www.w3.org/1999/xlink"><linearGradient id="a" gradientTransform="matrix(163.351562 0 0 257.660156 420.359375 163.617187)" gradientUnits="userSpaceOnUse" x1=".882" x2=".077" y1=".453" y2="-.023"><stop offset="0" stop-color="#6fe08d"/><stop offset="1" stop-color="#387047"/></linearGradient><path d="m420.617188 163.617188h51.5l111.59375 111.652343v34.355469l-111.59375 111.652344h-51.5l-.070313-17.105469 111.660156-111.726563-111.847656-111.910156zm0 0" fill="url(#a)"/><path d="m309.023438 421.277344h60.085937l103.007813-257.660156h-60.085938zm0 0" fill="#6fe08d"/><path d="m157.535156 480.96875c-1.644531.140625-2.9375 1.472656-3.023437 3.121094v102.898437c.085937 1.648438 1.378906 2.980469 3.023437 3.117188h57.421875c30.222657 0 45.332031-27.4375 45.332031-54.566407 0-27.441406-15.109374-54.566406-45.332031-54.566406zm12.085938 15.28125 45.332031.3125c19.339844 0 28.710937 19.019531 28.710937 38.664062 0 19.332032-9.671874 39.289063-28.710937 39.289063h-45.332031zm119.378906-15.28125c-1.644531.140625-2.933594 1.472656-3.023438 3.121094v102.898437c.089844 1.648438 1.378907 2.980469 3.023438 3.117188h9.066406c1.644532-.136719 2.9375-1.46875 3.023438-3.117188v-102.898437c-.085938-1.648438-1.378906-2.980469-3.023438-3.121094zm80.089844 0c-30.222656 0-45.332032 27.128906-45.332032 54.570312 0 27.128907 15.105469 54.566407 45.332032 54.566407h58.027344c.300781-.3125.601562-.3125.90625-.625.875-.535157 1.4375-1.464844 1.511718-2.488281v-48.335938c-.089844-1.648438-1.378906-2.980469-3.023437-3.117188h-9.066407c-1.644531.136719-2.9375 1.46875-3.023437 3.117188v35.859375h-45.332031c-19.039063 0-28.414063-19.644531-28.414063-39.289063 0-19.332031 9.367188-38.667968 28.414063-38.667968h57.421875c1.644531-.136719 2.933593-1.46875 3.019531-3.117188v-9.351562c-.085938-1.648438-1.375-2.980469-3.019531-3.121094zm126.933594 0c-30.222657 0-45.335938 27.128906-45.335938 54.570312 0 27.128907 15.109375 54.566407 45.335938 54.566407h58.027343c.300781-.3125.601563-.3125.90625-.625.875-.535157 1.4375-1.464844 1.511719-2.488281v-48.335938c-.089844-1.648438-1.378906-2.980469-3.023438-3.117188h-9.066406c-1.644531.136719-2.9375 1.46875-3.023437 3.117188v35.859375h-45.332031c-19.042969 0-28.414063-19.644531-28.414063-39.289063 0-19.332031 9.367187-38.667968 28.414063-38.667968h57.421874c1.644532-.136719 2.933594-1.46875 3.019532-3.117188v-9.351562c-.085938-1.648438-1.375-2.980469-3.019532-3.121094zm91.570312 0c-1.644531.136719-2.9375 1.46875-3.023438 3.121094v102.898437c.085938 1.648438 1.375 2.980469 3.019532 3.117188h9.066406c1.648438-.136719 2.9375-1.46875 3.023438-3.117188v-102.898437c-.085938-1.648438-1.375-2.980469-3.019532-3.121094zm39.289062 0c-1.644531.140625-2.933593 1.472656-3.019531 3.121094v9.355468c.085938 1.648438 1.375 2.980469 3.019531 3.117188h42.3125v90.425781c.085938 1.648438 1.375 2.980469 3.023438 3.117188h9.066406c1.644532-.136719 2.933594-1.46875 3.019532-3.117188v-90.425781h42.3125c.828124.039062 1.636718-.28125 2.214843-.878906s.871094-1.414063.808594-2.242188v-9.351562c-.089844-1.648438-1.378906-2.980469-3.023437-3.121094zm0 0" fill="#fff"/></svg>