<svg xmlns="http://www.w3.org/2000/svg" fill-rule="evenodd" viewBox="0 0 16 16" xmlns:v="https://vecta.io/nano"><path d="M9.92 3.355l5.537-.22c1.593.036-.556 9.582-3.427 9.797H7.244c-1.093-.117-2.568-2.345-2.706-2.99C3.284 9.912.146 9.593.004 6.15-.087 3.945 1.56 3.065 2.79 3.07c.48.001.93.062 1.25.065 2.57.142 3.92.223 5.46.223l.003 2.77.418.207zm2.44 4.387l-4.03-1.958-1.957 4.03 4.03 1.957zm-9.25-3.455C1.51 4.245 1.078 5.244 1.2 6.2c.23 1.79 1.478 2.268 2.944 2.462-.575-1.577-.86-2.61-1.033-4.374z"/><g transform="matrix(.128847 0 0 .128847 -.779534 -1.26275)"><g transform="matrix(.940904 -.338674 .338674 .940904 0 0)"><circle cx="49.065" cy="90.078" r="3.475"/><circle cx="36.81" cy="102.105" r="3.475"/><circle cx="46.484" cy="111.439" r="3.475"/></g><path d="M79.784 58.435l2.402 1.173L69.98 84.605l-2.402-1.173z"/><path d="M76.558 68.116c12.976 6.396 13.013 4.102 4.89 20.908" fill="none" stroke="#000" stroke-width="2.68"/></g></svg>