<svg height="274.667" viewBox="0 0 332 206" width="442.667" xmlns="http://www.w3.org/2000/svg"><path d="m55.83 0h7.76c43.08 3.1 86.25 5.22 129.43 5.6 5.63-.7 11.3-.65 16.94-.2 36.38-.3 72.72-2.32 109.06-3.84 2.78-.2 5.72.66 7.52 2.9 3.82 4.57 4.62 10.75 5.46 16.44v17.68c-.8 16.97-3.94 33.76-7.73 50.3-4.3 18.82-11.05 36.98-18.56 54.73-6.54 15.05-13.96 29.95-24.42 42.7-7.6 9.28-17.66 17.16-29.62 19.7h-103.2c-7.87-1.85-14.55-6.77-20.52-12.02-8.4-7.35-14.93-16.48-21.45-25.47-5.35-7.4-9.5-15.58-12.82-24.07-24.08-1-49.6-5.75-68.6-21.64-16.25-13.51-24.02-34.78-25.08-55.44v-12.65c1.15-14.26 6.72-28.54 17.22-38.5 10.3-10 24.5-15 38.6-16.2m6.62 2.53c1.3 10.5 3.7 20.82 4.67 31.35 2.34 21.4 7.4 42.46 13.8 63 2.5 8.12 5.84 15.98 7.88 24.24 2.37 8.35 5.3 16.52 8.26 24.68 4.35 11.46 11.4 21.6 18.93 31.18 6.4 8.54 13.93 16.4 22.98 22.14 3.93 2.4 8.3 4.62 13.02 4.52h93.08c10.23.65 19.73-4.85 27.12-11.46 9.2-8.45 15.98-19.14 21.9-30.05 8.64-16.4 15.4-33.73 21.4-51.26 6.2-19.13 10.35-38.9 12.87-58.84 1.23-11.1 2.1-22.34.75-33.45-.75-4.73-1.67-10-5.42-13.36-3.44-1.6-7.3-.56-10.95-.68l-80.73 3.14c-8.86-.07-17.7 1.1-26.55.53l1.1-2.34c-3.08-.1-6.2.14-9.22-.5l-.43 2.61c-1.62.1-3.25.2-4.87.2-43.23-.47-86.43-2.6-129.56-5.65m-27.72 35.15c-8.1 8.5-8.85 21.3-6.87 32.3 2.17 12.8 8.82 25.1 19.65 32.54 10.7 7.72 23.97 10.48 36.8 12.25-10.2-28.1-17.8-57.27-20.37-87.1-10.34.37-21.73 2.13-29.2 10zm162.15 30.35c2.07 1.18 4.2 2.23 6.4 3.2l-.28.62c-2.24 5-4.85 9.85-7.14 14.84 1.23 2.14 2.02 4.48 2.52 6.9 6.24 3.62 13.6 5.78 18.52 11.33 2.7 2.9 3.5 7.1 2.65 10.9-2.08 9.42-6.8 17.95-11.26 26.4 1.3 2.03 2.73 4.2 2.5 6.73.18 5.88-6.18 10.75-11.82 8.98-5.73-1.34-8.95-8.63-5.77-13.68 1.64-3.38 5.34-4.65 8.83-5.1 3.48-7.64 7.8-15 9.94-23.17.43-2.24 1.2-5.34-1.02-6.9-4.7-3.77-10.22-6.4-15.7-8.87a16.56 16.56 0 0 1 -7.25 2.64l-12.05 24.6c1.18 2 2.62 4.03 2.54 6.46.18 5.1-4.34 9.73-9.44 9.63-5.77.12-10.7-5.92-9.17-11.54.9-4.4 5.07-7.1 9.3-7.57l12.22-25c-2.35-3.4-3.03-8.06-.45-11.53 1.7-3 5.24-3.6 8.2-4.63 2.72-4.64 4.67-9.7 7.27-14.4l.43-.84z" fill="#5e9a18"/><path d="m62.45 2.53c43.13 3.07 86.33 5.17 129.55 5.65 1.62 0 3.25-.1 4.87-.2l-.17 52c.1 1.5-.15 3.16.53 4.56 2.68 1.77 5.73 2.82 8.65 4.1l-.02-59.36c5.47-.01 10.98.2 16.4-.9 11.63-.62 23.4.9 34.95-1.02 7.35-.37 14.76.48 22.08-.6 7-1.2 14.13.14 21.16-.77 7.67-1.28 15.48-.5 23.22-.75 3.75 3.35 4.67 8.63 5.42 13.36 1.36 11.1.48 22.36-.75 33.45-2.52 19.94-6.67 39.7-12.87 58.84-6 17.53-12.76 34.85-21.4 51.26-5.9 10.9-12.68 21.6-21.9 30.05-7.4 6.6-16.9 12.1-27.12 11.46-31.03-.03-62.06-.02-93.08 0-4.73.1-9.1-2.12-13.02-4.52-9.05-5.74-16.6-13.6-22.98-22.14-7.52-9.58-14.58-19.72-18.93-31.18-2.95-8.16-5.9-16.33-8.26-24.68-2.04-8.26-5.4-16.12-7.88-24.24-6.4-20.55-11.46-41.6-13.8-63.03-.96-10.53-3.37-20.86-4.67-31.35m104.52 67.44-25 51c-1.87 4.14-4.67 8.2-4.4 12.95-.03 5.48 3.58 10.52 8.43 12.86l48.55 23.64c4.97 2.23 9.74 5.97 15.5 5.44 5.57-.27 10.37-4.17 12.64-9.14l27.18-55.78c3.42-6.84.54-16.1-6.47-19.4l-40.38-19.65.28-.62c-2.18-.98-4.32-2.03-6.4-3.2l-.43.84c-3.37-2.28-7.16-3.8-10.8-5.57-6.7-3.14-15.44.02-18.7 6.65z" fill="#c6debd"/><path d="m312.72 4.57c3.64.12 7.5-.92 10.95.68-7.74.26-15.55-.53-23.22.75-7.03.9-14.15-.42-21.16.77-7.32 1.08-14.73.23-22.08.6-11.56 1.92-23.32.4-34.95 1.02-5.4 1.1-10.92.88-16.4.9l.02 59.36c-2.92-1.28-5.97-2.33-8.65-4.1-.68-1.4-.43-3.05-.53-4.56l.17-52 .43-2.6c3.03.64 6.14.4 9.22.5l-1.1 2.34c8.86.58 17.7-.6 26.55-.53 26.93-.46 53.83-1.96 80.73-3.13zm-145.75 65.4c3.26-6.63 12-9.8 18.7-6.65 3.64 1.77 7.43 3.3 10.8 5.57-2.6 4.72-4.55 9.77-7.27 14.4-2.97 1.04-6.52 1.62-8.2 4.63-2.58 3.47-1.9 8.14.45 11.53l-12.22 25c-4.24.48-8.42 3.16-9.3 7.57-1.53 5.62 3.4 11.66 9.17 11.54 5.1.1 9.62-4.53 9.44-9.63.08-2.43-1.36-4.47-2.54-6.46l12.05-24.6a16.56 16.56 0 0 0 7.25-2.64c5.47 2.48 10.98 5.1 15.7 8.87 2.2 1.57 1.45 4.67 1.02 6.9-2.14 8.17-6.46 15.53-9.94 23.17-3.5.44-7.2 1.7-8.83 5.1-3.18 5.05.04 12.34 5.77 13.68 5.64 1.77 12-3.1 11.82-8.98.22-2.53-1.2-4.7-2.5-6.73 4.46-8.46 9.18-17 11.26-26.4.85-3.8.05-8-2.65-10.9-4.92-5.55-12.28-7.7-18.52-11.33-.5-2.42-1.3-4.76-2.52-6.9 2.3-5 4.9-9.83 7.14-14.84 13.62 6.22 26.93 13.1 40.4 19.66 7 3.28 9.9 12.55 6.47 19.4l-27.22 55.77c-2.27 4.97-7.07 8.87-12.64 9.14-5.75.53-10.52-3.2-15.5-5.44l-48.56-23.64c-4.85-2.34-8.46-7.38-8.43-12.86-.28-4.75 2.52-8.8 4.4-12.95l25-51z" fill="#fff"/></svg>