<svg height="341.333" viewBox="0 0 256 256" width="341.333" xmlns="http://www.w3.org/2000/svg"><path d="m12.1 36.63 137.87-23.77.04 34.97c4.7-2.1 9.82-3.58 15.03-3.14 10.5.5 20.25 7.6 24.1 17.36 1.9 4.3 2 9.03 2.06 13.63 2.8-6 7.06-11.48 13.06-14.5 10.23-5.64 23.9-3.82 32.25 4.35 10 9.08 11.6 25.65 3.48 36.46-7.6 11.05-23.6 14.9-35.4 8.5-10.67-5.3-16.75-17.8-14.76-29.5-3.18 10-12.32 17.8-22.77 19.07-5.85.9-11.74-.5-17.05-2.94l.02 13.86 39.04.04c3.6-.1 7.1 2.54 7.72 6.12.33 2.27.23 4.57.28 6.86l40 .02c4.23-.13 7.96 3.7 7.9 7.9l.03 33.15c.07 6.32-2.4 12.56-6.8 17.1-5.48 6.14-13.64 9.03-21.6 10.14-7 1.1-14.1.48-21.15.72-2.7 5.68-6.75 11-12.48 13.87-10.07 5.2-21.93 5.64-32.92 3.77l-.08 35.44-137.87-23.75zm138.12 20.7c-.35 10.1-.38 20.23.01 30.32 4.5 3.35 10.13 5.4 15.78 4.5 9.7-1.14 17.6-10.36 17.12-20.16 0-9.8-8.34-18.62-18.1-19.27-5.36-.6-10.58 1.47-14.82 4.62m62.18 9.18c-9.33 2.26-16.08 11.97-14.76 21.52.97 10.3 11.07 18.63 21.4 17.48 10.95-.63 19.78-11.6 18-22.45-1.23-11.38-13.6-19.76-24.63-16.55m-163.33 21.78c-.14 4.9-.12 9.78-.03 14.67l23.92-.97.1 68c5.3.44 10.6.73 15.9.98l.13-69.66 23.84-1.08c.16-5.25.13-10.5.03-15.75l-63.88 3.8m100.98 30.78-.05 83.08c9.23 2.57 19.5 2 28.28-1.88 5.87-2.72 10.9-8.38 10.63-15.18l.05-66.02c-12.97-.06-25.95-.05-38.9 0m47.05 13v52.85c11.27.06 24.02.88 33.45-6.44 4.5-3.34 6.76-8.9 6.45-14.43l-.03-32c-13.3-.05-26.58-.07-39.86.01z" fill="#5457ae"/><path d="m150.2 57.33c4.24-3.15 9.46-5.22 14.82-4.62 9.75.65 18.1 9.48 18.1 19.27.5 9.8-7.42 19.02-17.12 20.16-5.65.9-11.28-1.14-15.78-4.5-.4-10.1-.36-20.23-.01-30.32zm62.2 9.17c11.03-3.2 23.4 5.17 24.63 16.55 1.78 10.84-7.05 21.82-18 22.45-10.32 1.15-20.42-7.17-21.4-17.48-1.32-9.55 5.43-19.26 14.76-21.52zm-163.33 21.8 63.88-3.8c.1 5.25.13 10.5-.03 15.75-7.94.55-15.9.72-23.84 1.08l-.13 69.67-15.9-.98-.1-68-23.92.97c-.1-4.9-.1-9.78.03-14.67zm100.98 30.8h38.9l-.05 66.02c.27 6.8-4.76 12.46-10.63 15.18-8.78 3.9-19.05 4.45-28.28 1.88l.05-83.08zm47.05 13h39.86l.03 32c.3 5.53-1.95 11.1-6.45 14.43-9.43 7.32-22.18 6.5-33.45 6.44v-52.87z" fill="#fff"/></svg>