<svg height="21.333" viewBox="0 0 16 16" width="21.333" xmlns="http://www.w3.org/2000/svg"><g fill="#fdfffc"><path d="m0 0h9.03l-2.13 2.03c.16 3.84.03 7.68.08 11.52-2.12-.57-5-1.54-4.8-4.26 1.58-1.34 3.07-2.77 4.3-4.45-2.4.64-4.65 1.8-6.46 3.54v-8.38z"/><path d="m9.03 0h6.97v16h-16v-4.7c2.08 2.28 5.04 3.25 7.9 4.07 2.3-4.75.6-10.27 1.13-15.37m.82 4.86c.34 2.68 3 3.66 5.25 4.25l-.64-2.5-4.6-1.76z"/></g><path d="m9.03 0c-.53 5.1 1.17 10.62-1.13 15.38-2.87-.82-5.83-1.8-7.9-4.07v-2.93c1.8-1.74 4.05-2.9 6.46-3.54-1.22 1.68-2.7 3.1-4.3 4.45-.2 2.72 2.7 3.7 4.8 4.26-.05-3.84.08-7.68-.08-11.52zm.82 4.86 4.6 1.76.64 2.5c-2.25-.6-4.9-1.57-5.25-4.25z" fill="#cba472"/></svg>