<svg height="42.667" viewBox="0 0 32 32" width="42.667" xmlns="http://www.w3.org/2000/svg"><path d="m0 0h2.04c-.29.94-.96 1.7-2.04 2.26z" fill="#2c2c2c" opacity=".17"/><path d="m2.04 0h15.98c-1.02 1.04-2.25 1.88-3.15 3.04.17 1.5.74 2.92 1.26 4.33l.04.1-5.57 1.83c-.5-2.1-1.72-5.7-4.52-4.38-2.63.94-1.46 4-.57 5.8-1.83.86-3.8 1.6-5.2 3.14.05 3.56 4.44 3.58 6.78 2.07l.08-.03 1.93 5.6c-2.16.52-5.67 1.5-4.5 4.5 1.26 2.7 4.1 1.16 6.07.42l.15-.05c.5 1.96 1.06 4.34 3 5.35 1.84.5 2.18-1.75 3.17-2.7-.12-1.5-.8-2.88-1.25-4.3l5.55-1.9c.6 2.07 1.36 5.4 4.24 4.75 2.98-1.02 1.7-4.35.86-6.45 2-.83 5.6-1.3 5.2-4.2-1.73-2.53-4.5-1.78-6.9-.8l-1.94-5.43-.05-.16c2.17-.44 5.8-1.45 4.62-4.46-1.44-2.42-4.13-.84-6.17-.37-.56-1.98-1.18-4.03-3.2-5l1-.68h9.75c1.4.75 2.4 1.84 3.28 3.12v25.66c-.77 1.36-1.9 2.33-3.16 3.2h-25.52c-1.4-.72-2.35-1.83-3.3-3.02v-26.72c1.08-.56 1.75-1.32 2.04-2.26zm10.26 14.14c1.8-.68 3.68-1.17 5.53-1.74l1.82 5.5-5.56 1.82-1.27-3.67-.52-1.92z" fill="#fff"/><path d="m18.02 0h.95l-1 .68c2 .98 2.63 3.03 3.2 5l.06.2-5.1 1.47c-.52-1.4-1.1-2.82-1.26-4.33.9-1.16 2.13-2 3.15-3.04zm-.28 12.14 5.02-1.46 1.94 5.43.06.22-5.12 1.58-1.82-5.5-.08-.26zm3.52 10.6 4.9-1.55.24-.07c.83 2.1 2.12 5.43-.86 6.45-2.88.65-3.65-2.68-4.24-4.75l-.03-.08z" fill="#e9a820"/><path d="m28.72 0h3.28v3.12c-.88-1.28-1.9-2.37-3.28-3.12z" fill="#565656" opacity=".34"/><path d="m5.5 10.7c-.9-1.8-2.06-4.85.57-5.8 2.8-1.3 4.03 2.3 4.53 4.4l.12.38-5.14 1.2-.07-.18zm1.67 5.2 4.97-1.74.67 1.9 1.27 3.67.04.16-4.93 1.6-.08.03zm3.66 10.47 4.78-1.62.13-.04c.46 1.42 1.13 2.8 1.25 4.3-1 .96-1.33 3.2-3.17 2.7-1.93-1-2.5-3.4-3-5.35z" fill="#3eb991"/><path d="m21.16 5.7c2.04-.47 4.73-2.05 6.17.37 1.18 3-2.45 4.02-4.62 4.46l-1.51-4.63-.06-.2zm-10.56 3.6 5.58-1.83 1.57 4.67.08.26-5.53 1.74.52 1.92-.67-1.9zm-5.1 1.4c.02.04.05.13.07.18l1.53 5.02c-2.35 1.53-6.74 1.5-6.8-2.05 1.4-1.54 3.36-2.28 5.2-3.14z" fill="#6ecadc"/><path d="m16.13 7.37 5.1-1.47 1.54 4.78-5.02 1.46-1.57-4.67-.04-.1z" fill="#65851b"/><path d="m5.57 10.9 5.14-1.2 1.43 4.47-4.97 1.74-.08.03-1.52-5.03z" fill="#1a937d"/><path d="m24.7 16.1c2.4-.98 5.17-1.73 6.9.8.4 2.9-3.22 3.37-5.2 4.2l-.24.07c-.38-1.64-.87-3.25-1.4-4.85zm-10.62 3.63 5.8-1.9c.35 1.66.88 3.27 1.4 4.9l.03.08-5.68 1.94c-.35-1.66-1.04-3.22-1.5-4.86l-.04-.16zm-9.48 6.27c-1.17-3 2.34-3.97 4.5-4.5l.08-.03 1.5 4.94c-1.96.74-4.8 2.27-6.07-.42z" fill="#e01563"/><path d="m19.87 17.84 4.9-1.5 1.4 4.85-4.9 1.55z" fill="#cd0d0c"/><path d="m9.2 21.48 4.93-1.6 1.5 4.86-4.93 1.67-1.5-4.94z" fill="#360f38"/><path d="m0 28.98c.95 1.2 1.9 2.3 3.3 3.02h-3.3z" fill="#555" opacity=".33"/><path d="m28.84 32c1.27-.88 2.4-1.85 3.16-3.2v3.2z" fill="#535353" opacity=".33"/></svg>