<svg height="314.667" viewBox="0 0 236 236" width="314.667" xmlns="http://www.w3.org/2000/svg"><path d="m69.86 10.77c24.64-11.17 53.16-13.37 79.24-6.23 22.8 6.14 43.5 19.57 58.8 37.52 17.66 20.44 27.67 47.24 28.1 74.24v7.93c-1.5 27.92-12.97 55.2-32.33 75.44-19.3 20.53-46.2 33.6-74.24 36.34h-22.68c-25.68-2.58-50.44-13.73-69.22-31.45-19.93-18.66-33.13-44.38-36.35-71.49-3.28-25.87 2.32-52.74 15.72-75.09 12.3-20.63 31.1-37.26 52.95-47.2m90.25 64.3-107.38 40.62c-2.14.8-4.53 2.9-4 5.4 1.9 3.9 6.77 4.34 10.4 5.7 7.64 2.7 15.68 4.38 23.03 7.8.37 2.8 1.26 5.47 2.2 8.12l7.84 24.14c.72 2.6 2.98 4.23 4.84 6 5.13-3.04 8.73-7.93 13.15-11.8 1.93-2 4.74-3.26 5.75-6 8.54 5.27 16.27 11.78 24.48 17.56 3.3 2.13 6.3 6 10.7 5.23 3.83-.36 4.9-4.6 5.64-7.7 6.9-27.13 12.58-54.56 17.92-82.04.82-5 2.15-10 1.72-15.12-5.4-3.4-11.05.3-16.26 2.07z" fill="#2ba1db"/><path d="m160.1 75.07c5.2-1.76 10.87-5.47 16.26-2.07.43 5.1-.9 10.12-1.72 15.12-5.34 27.48-11 54.9-17.92 82.04-.73 3.1-1.8 7.34-5.64 7.7-4.4.76-7.38-3.1-10.7-5.23-8.2-5.78-15.94-12.3-24.48-17.56-1 2.74-3.82 4-5.75 6-4.42 3.88-8.02 8.77-13.15 11.8-1.86-1.78-4.12-3.4-4.84-6l-7.84-24.14c-.94-2.65-1.83-5.32-2.2-8.12-7.35-3.4-15.4-5.1-23.03-7.8-3.63-1.36-8.5-1.8-10.4-5.7-.52-2.52 1.87-4.6 4-5.4l107.4-40.64z" fill="#e9f2f9"/></svg>